# xmcd
#
# Track frame offsets:
#	150
#	14410
#	27157
#	39730
#	52226
#	63502
#	74313
#	88614
#	100746
#	113936
#	127455
#	141323
#	154728
#	168500
#	179870
#	192531
#	202978
#	214081
#	227083
#	240104
#	253308
#	264652
#
# Disc length: 3681 seconds
#
# Revision: 1
# Processed by: cddbd v1.5.2PL0 Copyright (c) Steve Scherf et al.
# Submitted via: audiograbber 1.83.01
#
DISCID=540e5f16
DTITLE=Various Artist - The Blues Roots of The Rolling Stones
DYEAR=2008
DGENRE=Blues
TTITLE0=Muddy Waters - Rolling Stone
TTITLE1=Slim Harpo - I Got Love If You Want It
TTITLE2=Elmore James - Dust My Broom
TTITLE3=Chuck Berry - You Can't Catch Me
TTITLE4=Bo Diddley - Diddley Daddy
TTITLE5=Buddy Holly - Not Fade Away
TTITLE6=John Lee Hooker - Boogie Chillun
TTITLE7=Jimmy Reed - Honest I Do
TTITLE8=Robert Wilkins - Rolling Stone - Part 1
TTITLE9=Leroy Carr and Scrapper Blackwell - When The Sun Goes Down
TTITLE10=Slim Harpo - I'm A King Bee
TTITLE11=Muddy Waters - Mannish Boy
TTITLE12=B.B. King - Three O'Clock In The Morning
TTITLE13=Bo Diddley - Who Do You Love
TTITLE14=Muddy Waters - (I'm Your) Hoochie Coochie Man
TTITLE15=Robert Johnson - Stop Breakin' Down Blues
TTITLE16=Blind Boy Fuller - Get Your Yas Yas Out
TTITLE17=Robert Petway - Catfish Blues
TTITLE18=Howlin' Wolf - Evil (Is Going On)
TTITLE19=Robert Wilkins - That's No Way To Get Along
TTITLE20=Robert Johnson - Love In Vain
TTITLE21=Muddy Waters - I Want To Be Loved
EXTD=
EXTT0=
EXTT1=
EXTT2=
EXTT3=
EXTT4=
EXTT5=
EXTT6=
EXTT7=
EXTT8=
EXTT9=
EXTT10=
EXTT11=
EXTT12=
EXTT13=
EXTT14=
EXTT15=
EXTT16=
EXTT17=
EXTT18=
EXTT19=
EXTT20=
EXTT21=
PLAYORDER=
